IKResults
version=1
nRows=7
nColumns=63
inDegrees=yes

Units are S.I. units (second, meters, Newtons, ...)
If the header above contains a line with 'inDegrees', this indicates whether rotational values are in degrees (yes) or radians (no).

endheader
time	pelvis_tilt	pelvis_list	pelvis_rotation	pelvis_tx	pelvis_ty	pelvis_tz	hip_flexion_r	hip_adduction_r	hip_rotation_r	knee_angle_r	knee_angle_r_beta	ankle_angle_r	subtalar_angle_r	mtp_angle_r	hip_flexion_l	hip_adduction_l	hip_rotation_l	knee_angle_l	knee_angle_l_beta	ankle_angle_l	subtalar_angle_l	mtp_angle_l	L5_S1_Flex_Ext	L5_S1_Lat_Bending	L5_S1_axial_rotation	L4_L5_Flex_Ext	L4_L5_Lat_Bending	L4_L5_axial_rotation	L3_L4_Flex_Ext	L3_L4_Lat_Bending	L3_L4_axial_rotation	L2_L3_Flex_Ext	L2_L3_Lat_Bending	L2_L3_axial_rotation	L1_L2_Flex_Ext	L1_L2_Lat_Bending	L1_L2_axial_rotation	L1_T12_Flex_Ext	L1_T12_Lat_Bending	L1_T12_axial_rotation	Abs_r3	Abs_r2	Abs_r1	Abs_t1	Abs_t2	neck_flexion	neck_bending	neck_rotation	arm_flex_r	arm_add_r	arm_rot_r	elbow_flex_r	pro_sup_r	wrist_flex_r	wrist_dev_r	arm_flex_l	arm_add_l	arm_rot_l	elbow_flex_l	pro_sup_l	wrist_flex_l	wrist_dev_l
      6.03333333	     -8.67719196	     -1.85897856	     21.29742318	      0.29240923	      0.93995930	     -0.58306078	      5.84825635	     -6.68047307	     -7.00874259	      8.80534215	      0.15368221	     13.77014817	      5.75205184	      0.00000000	      6.43353990	     -3.10394746	    -22.41264807	      9.21724669	      0.16087130	     13.75081197	     -6.74306149	      0.00000000	      0.89801196	     -0.21394511	     -0.00745778	      1.66769801	     -0.28454699	     -0.00792389	      1.47534385	     -0.52018613	     -0.00792389	      1.02633787	     -0.52018613	     -0.00652556	      0.83389390	     -0.43627686	     -0.00605945	      0.51312403	     -0.33140097	     -0.00559334	      6.41440962	     -2.42018985	     -0.04147794	      0.00000000	      0.00000000	     16.21141595	      0.99003031	     -1.47987483	      3.03420648	     -8.26958901	   -196.71685768	      0.31219344	     89.99559364	      0.00000000	      0.00000000	     -8.92916408	    -13.74722690	      4.29626393	     29.72673362	     89.99559364	      0.00000000	      0.00000000
      6.06666667	     -8.93770833	     -2.29594004	     21.40215540	      0.29262066	      0.93934201	     -0.58601927	      5.96342703	     -6.48696697	     -6.87953174	      8.36057908	      0.14591963	     13.49308259	      5.56596796	      0.00000000	      6.65891418	     -3.22642803	    -22.39463815	      8.95687573	      0.15632697	     14.06955981	     -6.15929925	      0.00000000	      0.97784778	     -0.18282977	     -0.03943978	      1.81596112	     -0.24316359	     -0.04190477	      1.60650613	     -0.44453230	     -0.04190477	      1.11758223	     -0.44453230	     -0.03450981	      0.90802945	     -0.37282646	     -0.03204482	      0.55874222	     -0.28320331	     -0.02957983	      6.98466894	     -2.06820689	     -0.21935222	      0.00000000	      0.00000000	     16.94864157	      0.69641339	     -0.63295234	      2.73490913	     -8.08810991	   -196.33155055	      0.33074742	     89.99559364	      0.00000000	      0.00000000	     -8.47297488	    -13.84646565	      3.94430790	     28.47984280	     89.99559364	      0.00000000	      0.00000000
      6.10000000	     -9.93404532	     -3.64441915	     22.91607632	      0.29341899	      0.93733196	     -0.58812269	      6.83325235	     -5.50557354	     -6.61630619	      7.87040925	      0.13736455	     12.84794531	      2.75724463	      0.00000000	      8.63286169	     -4.49705318	    -24.44994562	      9.92841932	      0.17328361	     15.87118378	     -0.43884184	      0.00000000	      1.25536503	     -0.12602345	     -0.37459320	      2.33133840	     -0.16761120	     -0.39800527	      2.06243921	     -0.30641343	     -0.39800527	      1.43475669	     -0.30641343	     -0.32776905	      1.16573197	     -0.25698703	     -0.30435697	      0.71731558	     -0.19521033	     -0.28094490	      8.96694687	     -1.42560253	     -2.08337498	      0.00000000	      0.00000000	     16.82379176	      0.77484942	      0.43621032	      2.21206711	     -7.50770638	   -190.95144747	      0.35566575	     89.99559364	      0.00000000	      0.00000000	     -8.77641753	    -13.79141489	      1.48026548	     27.28964821	     89.99559364	      0.00000000	      0.00000000
      6.13333333	    -10.00200278	     -3.95646912	     22.91254365	      0.29487956	      0.93685617	     -0.58932082	      6.89708126	     -5.26908596	     -6.57876561	      7.86651765	      0.13729663	     13.01192417	      2.79024054	      0.00000000	      8.61876993	     -4.71065221	    -24.38138111	      9.74654082	      0.17010923	     16.10823378	     -0.14139673	      0.00000000	      1.31121066	     -0.10911129	     -0.36731027	      2.43504932	     -0.14511802	     -0.39026716	      2.15418800	     -0.26529320	     -0.39026716	      1.49858267	     -0.26529320	     -0.32139649	      1.21759022	     -0.22249975	     -0.29843960	      0.74922577	     -0.16901339	     -0.27548270	      9.36584665	     -1.23428878	     -2.04286953	      0.00000000	      0.00000000	     17.33394357	      0.63292911	      1.12394423	      2.01919017	     -7.11935613	   -190.73147845	      0.39531617	     89.99559364	      0.00000000	      0.00000000	     -8.25983831	    -13.98270082	      1.24954445	     25.57609390	     89.99559364	      0.00000000	      0.00000000
      6.16666667	    -10.06473352	     -4.36296807	     22.95052606	      0.29625688	      0.93642310	     -0.58991184	      7.10473525	     -4.92344918	     -6.67528226	      8.05462101	      0.14057966	     13.12960298	      2.84159398	      0.00000000	      8.73095412	     -5.08720958	    -24.42202455	      9.69598577	      0.16922688	     16.36068842	      0.24886319	      0.00000000	      1.37385724	     -0.08075771	     -0.36067207	      2.55139028	     -0.10740775	     -0.38321408	      2.25711006	     -0.19635429	     -0.38321408	      1.57018144	     -0.19635429	     -0.31558807	      1.27576383	     -0.16468111	     -0.29304606	      0.78502203	     -0.12509369	     -0.27050406	      9.81332489	     -0.91354732	     -2.00594988	      0.00000000	      0.00000000	     17.56806420	      0.52943449	      2.05786620	      1.93207119	     -6.73825681	   -190.17649158	      0.44848560	     89.99559364	      0.00000000	      0.00000000	     -7.52101004	    -13.99720429	      0.95808759	     23.31421913	     89.99559364	      0.00000000	      0.00000000
      6.20000000	    -10.05996369	     -4.56282766	     22.89133404	      0.29891016	      0.93608627	     -0.58953088	      7.10112577	     -4.64117244	     -6.71354620	      8.18868207	      0.14291946	     13.29298042	      2.86710304	      0.00000000	      8.63893114	     -5.38836119	    -24.38817473	      9.68980653	      0.16911903	     16.48578795	      0.31372695	      0.00000000	      1.42150616	     -0.08179931	     -0.36271432	      2.63987908	     -0.10879308	     -0.38538397	      2.33539246	     -0.19888683	     -0.38538397	      1.62463939	     -0.19888683	     -0.31737503	      1.32001062	     -0.16680514	     -0.29470539	      0.81224862	     -0.12670712	     -0.27203574	     10.15367632	     -0.92533011	     -2.01730826	      0.00000000	      0.00000000	     17.82144089	      0.42799668	      2.27804588	      1.93002555	     -6.16899620	   -190.03521846	      0.51004979	     89.99559364	      0.00000000	      0.00000000	     -7.56555194	    -14.36884697	      0.84139104	     22.54827357	     89.99559364	      0.00000000	      0.00000000
      6.23333333	    -10.19592626	     -5.12202194	     22.91668274	      0.29912160	      0.93561410	     -0.58954350	      7.66362473	     -4.21440542	     -7.08662734	      8.65000928	      0.15097114	     13.45144214	      3.18318738	      0.00000000	      9.10128290	     -5.96854781	    -24.61255021	      9.91369642	      0.17302664	     16.76792492	      0.91917050	      0.00000000	      1.48517149	     -0.02676864	     -0.31895563	      2.75811197	     -0.03560230	     -0.33889035	      2.43998823	     -0.06508528	     -0.33889035	      1.69740249	     -0.06508528	     -0.27908617	      1.37913024	     -0.05458662	     -0.25915145	      0.84862699	     -0.04146463	     -0.23921672	     10.60843140	     -0.30281225	     -1.77393551	      0.00000000	      0.00000000	     18.05205934	      0.32100288	      3.45191338	      2.05083205	     -6.01017977	   -188.74075141	      0.55541274	     89.99559364	      0.00000000	      0.00000000	     -6.36755683	    -13.91396243	      0.63763370	     19.64107392	     89.99559364	      0.00000000	      0.00000000
